<svg xmlns="http://www.w3.org/2000/svg" viewBox="0 0 411.43 494.14"><defs><style>.cls-1,.cls-3{fill:#14924d;}.cls-2{fill:#bbd436;}.cls-3{font-size:61.59px;font-family:Dubai-Bold, Dubai;font-weight:700;}.cls-4{letter-spacing:0em;}</style></defs><g id="Capa_2" data-name="Capa 2"><g id="Capa_1-2" data-name="Capa 1"><polygon class="cls-1" points="186 0 186 105.43 135.36 70.01 186 0"/><polygon class="cls-1" points="127.55 80.81 186 121.71 186 152.57 112.72 101.31 127.55 80.81"/><polygon class="cls-1" points="104.91 112.1 186 168.86 186 213 83.69 141.44 104.91 112.1"/><polygon class="cls-1" points="75.89 152.22 186 229.29 186 290 47.94 190.87 75.89 152.22"/><polygon class="cls-1" points="411.43 258 186 385.28 0 257.14 36.73 206.36 186 311.14 361.72 203.14 411.43 258"/><polygon class="cls-2" points="247.62 71.02 186 105.43 186 0 247.62 71.02"/><polygon class="cls-2" points="275.17 102.78 186 152.57 186 121.71 255.67 80.29 275.17 102.78"/><polygon class="cls-2" points="310.49 143.48 186 213 186 168.86 282.65 111.4 310.49 143.48"/><polygon class="cls-2" points="353.14 192.64 186 290 186 229.29 317.24 151.26 353.14 192.64"/><text class="cls-3" transform="translate(0 459.71) scale(0.92 1)">TI<tspan class="cls-4" x="53.09" y="0">E</tspan><tspan x="87.15" y="0">RRA SEGURA</tspan></text></g></g></svg>